<svg width="48" height="48" viewBox="0 0 48 48" fill="none" xmlns="http://www.w3.org/2000/svg">
<rect width="47.8906" height="47.9506" rx="15" fill="#1FB9DB"/>
<path d="M25.1276 32.2056C25.4031 31.69 26.0447 31.496 26.5604 31.7715C27.0759 32.0469 27.2708 32.6876 26.9956 33.2032C26.7004 33.7555 26.2602 34.2177 25.7231 34.5397C25.186 34.8616 24.5712 35.0318 23.9451 35.0318C23.3191 35.0317 22.7051 34.8615 22.1682 34.5397C21.631 34.2177 21.1908 33.7555 20.8957 33.2032C20.6205 32.6876 20.8154 32.0469 21.3309 31.7715C21.8465 31.496 22.4881 31.69 22.7636 32.2056C22.878 32.4198 23.0484 32.5987 23.2566 32.7235C23.4648 32.8483 23.7025 32.9147 23.9451 32.9148C24.1879 32.9148 24.4263 32.8483 24.6346 32.7235C24.8428 32.5987 25.0132 32.4198 25.1276 32.2056ZM15.6858 27.8393L15.6848 27.8382C15.6806 27.8348 15.6768 27.8317 15.6734 27.8289C15.6667 27.8236 15.6615 27.8192 15.6579 27.8165H15.6589C15.6757 27.8273 15.7251 27.8583 15.8171 27.9023C16.0028 27.9913 16.3579 28.1338 16.9552 28.2848C18.1539 28.5878 20.2968 28.9143 23.9451 28.9143C27.5937 28.9143 29.7373 28.5878 30.936 28.2848C31.5333 28.1338 31.8884 27.9913 32.0741 27.9023C32.1661 27.8583 32.2155 27.8273 32.2323 27.8165H32.2333C32.2298 27.8192 32.2245 27.8236 32.2178 27.8289C32.2144 27.8317 32.2106 27.8348 32.2064 27.8382C32.2043 27.84 32.2015 27.8414 32.1992 27.8434C32.1983 27.8442 32.1971 27.8447 32.1961 27.8455C32.2152 27.8291 32.2358 27.8139 32.2561 27.799C32.426 27.6731 32.6052 27.3703 32.6241 26.9792C32.6418 26.6103 32.5109 26.3227 32.284 26.1543V26.1533C32.144 26.0502 31.9802 25.9512 31.7775 25.8339C31.5894 25.7251 31.3439 25.588 31.119 25.4442C30.6623 25.152 30.0958 24.7157 29.7845 23.9846L29.7834 23.9825C29.6908 23.7634 29.6063 23.5333 29.5302 23.2941C29.5243 23.2756 29.5185 23.257 29.5137 23.2383C29.2606 22.2579 29.0806 21.2568 29.0805 20.1713C29.0806 19.1558 28.7794 18.1626 28.2153 17.3182C27.6511 16.4738 26.8485 15.8152 25.9102 15.4266C24.972 15.0381 23.9394 14.9359 22.9434 15.134C21.9475 15.3322 21.0328 15.8218 20.3147 16.5399C19.352 17.5026 18.8107 18.8093 18.8107 20.1713C18.8106 21.7131 18.5386 22.969 18.1078 23.9836L18.1067 23.9846C17.7954 24.7157 17.2289 25.152 16.7722 25.4442C16.5473 25.588 16.3018 25.7251 16.1138 25.8339C15.9107 25.9514 15.7464 26.05 15.6062 26.1533L15.6072 26.1543C15.3798 26.3227 15.2483 26.6105 15.2661 26.9792C15.2851 27.3699 15.4649 27.6729 15.6352 27.799C15.6524 27.8117 15.6693 27.8255 15.6858 27.8393ZM31.1976 20.1713C31.1976 21.0058 31.3331 21.8078 31.5542 22.6718C31.6103 22.8464 31.6695 23.0076 31.732 23.1556L31.7919 23.2631C31.8695 23.3744 32.0058 23.499 32.2592 23.661C32.4313 23.7711 32.6076 23.8684 32.837 24.0011C32.9976 24.094 33.1791 24.201 33.3611 24.3236L33.543 24.4518L33.5441 24.4529C34.4542 25.1275 34.7832 26.1635 34.739 27.0816C34.6969 27.9531 34.3122 28.8733 33.5761 29.4518L33.5709 29.457L33.543 29.4787C33.5299 29.4893 33.5151 29.5016 33.4986 29.5139C33.4656 29.5385 33.4253 29.5659 33.3776 29.5966C33.2817 29.6583 33.1543 29.7319 32.9879 29.8116C32.6557 29.9706 32.1647 30.1581 31.4539 30.3377C30.0358 30.6961 27.7082 31.0313 23.9451 31.0313C20.1823 31.0313 17.8553 30.6961 16.4373 30.3377C15.7265 30.1581 15.2355 29.9706 14.9033 29.8116C14.7369 29.7319 14.6095 29.6583 14.5136 29.5966C14.4659 29.5659 14.4257 29.5385 14.3926 29.5139C14.3761 29.5016 14.3613 29.4893 14.3482 29.4787L14.3203 29.457L14.3151 29.4518H14.3141C13.5786 28.8734 13.1945 27.9532 13.1522 27.0816C13.1077 26.1631 13.4358 25.1275 14.3472 24.4529L14.3482 24.4518C14.5892 24.274 14.8401 24.1249 15.0542 24.0011C15.2837 23.8684 15.4599 23.7711 15.6321 23.661C15.9695 23.4451 16.0994 23.2959 16.1592 23.1556C16.4672 22.4301 16.6936 21.4598 16.6937 20.1713C16.6937 18.2479 17.4581 16.4028 18.8179 15.0431C19.8321 14.0289 21.1243 13.3382 22.531 13.0583C23.9376 12.7786 25.3956 12.922 26.7206 13.4708C28.0457 14.0197 29.1789 14.9493 29.9757 16.1419C30.7725 17.3345 31.1976 18.737 31.1976 20.1713ZM15.6941 27.8455L15.692 27.8434C15.6901 27.8418 15.6876 27.8408 15.6858 27.8393C15.6884 27.8415 15.6915 27.8432 15.6941 27.8455Z" fill="white"/>
</svg>
