<svg width="23" height="23" viewBox="0 0 23 23" fill="none" xmlns="http://www.w3.org/2000/svg">
<path d="M11.2124 8.19655e-06C12.6855 -0.00177496 14.145 0.287401 15.506 0.851165C16.8661 1.41461 18.1017 2.24114 19.1416 3.28319L19.5229 3.68238C20.3876 4.63461 21.0823 5.73084 21.5756 6.92176C22.139 8.28201 22.4283 9.74009 22.4268 11.2124L22.4138 11.7639C22.3519 13.0487 22.0689 14.3151 21.5756 15.506C21.0121 16.8661 20.1846 18.1007 19.1426 19.1406C18.1023 20.1835 16.8669 21.0118 15.506 21.5756C14.145 22.1394 12.6855 22.4285 11.2124 22.4268C9.74009 22.4283 8.28201 22.139 6.92176 21.5756C5.56068 21.0118 4.32361 20.1846 3.28319 19.1416C2.24138 18.1018 1.41452 16.8659 0.851165 15.506C0.287401 14.145 -0.00177496 12.6855 8.19655e-06 11.2124C-0.00150977 9.74009 0.287784 8.28201 0.851165 6.92176C1.41496 5.56068 2.24214 4.32361 3.28518 3.28319C4.3252 2.24104 5.5615 1.41462 6.92176 0.851165C8.28201 0.287784 9.74009 -0.00150991 11.2124 8.19655e-06ZM11.2124 2.0388C10.0077 2.03732 8.81417 2.27365 7.70124 2.73466C6.5884 3.19565 5.57735 3.87188 4.72667 4.72468L4.72468 4.72667C3.87188 5.57735 3.19565 6.5884 2.73466 7.70124C2.27365 8.81417 2.03732 10.0077 2.0388 11.2124V11.2144C2.03732 12.419 2.27365 13.6126 2.73466 14.7255C3.13809 15.6994 3.70686 16.5949 4.41408 17.3736L4.72468 17.7001L4.72667 17.7021C5.57735 18.5549 6.5884 19.2311 7.70124 19.6921C8.81417 20.1531 10.0077 20.3894 11.2124 20.388H11.2144C12.419 20.3894 13.6126 20.1531 14.7255 19.6921C15.8384 19.2311 16.8494 18.5549 17.7001 17.7021L17.7021 17.7001C18.5549 16.8494 19.2311 15.8384 19.6921 14.7255C20.1531 13.6126 20.3894 12.419 20.388 11.2144V11.2124C20.3894 10.0077 20.1531 8.81417 19.6921 7.70124C19.2311 6.5884 18.5549 5.57735 17.7021 4.72667L17.7001 4.72468C16.8494 3.87188 15.8384 3.19565 14.7255 2.73466C13.6126 2.27365 12.419 2.03732 11.2144 2.0388H11.2124Z" fill="#1FB9DB"/>
<path d="M15.5896 7.43445C15.9877 7.03635 16.633 7.03635 17.0311 7.43445C17.4292 7.83255 17.4292 8.47784 17.0311 8.87594L10.9147 14.9923C10.5166 15.3904 9.87134 15.3904 9.47324 14.9923L6.41505 11.9341C6.01695 11.536 6.01695 10.8907 6.41505 10.4926C6.81315 10.0945 7.45844 10.0945 7.85654 10.4926L10.194 12.8301L15.5896 7.43445Z" fill="#1FB9DB"/>
</svg>
