<svg width="48" height="48" viewBox="0 0 48 48" fill="none" xmlns="http://www.w3.org/2000/svg">
<rect width="47.8906" height="47.9506" rx="15" fill="#1FB9DB"/>
<path d="M24.8826 17.7273C24.8826 17.4788 24.7839 17.2404 24.6081 17.0646C24.4324 16.8889 24.194 16.7901 23.9454 16.7901C23.6969 16.7901 23.4585 16.8889 23.2827 17.0646C23.107 17.2404 23.0082 17.4788 23.0082 17.7273V23.9753C23.0082 24.1342 23.0485 24.2905 23.1254 24.4295C23.2024 24.5686 23.3134 24.6857 23.4481 24.7701L27.1969 27.1131C27.4077 27.245 27.6622 27.2877 27.9045 27.2319C28.0245 27.2043 28.1379 27.1534 28.2381 27.0819C28.3384 27.0105 28.4237 26.92 28.489 26.8156C28.5543 26.7113 28.5984 26.5951 28.6188 26.4737C28.6392 26.3522 28.6355 26.228 28.6079 26.108C28.5802 25.988 28.5293 25.8747 28.4578 25.7744C28.3864 25.6741 28.2959 25.5889 28.1916 25.5236L24.8826 23.4555V17.7273Z" fill="white"/>
<path fill-rule="evenodd" clip-rule="evenodd" d="M23.9454 13.0414C21.0456 13.0414 18.2645 14.1933 16.214 16.2438C14.1634 18.2944 13.0115 21.0755 13.0115 23.9753C13.0115 26.8752 14.1634 29.6563 16.214 31.7068C18.2645 33.7573 21.0456 34.9093 23.9454 34.9093C26.8453 34.9093 29.6264 33.7573 31.6769 31.7068C33.7274 29.6563 34.8794 26.8752 34.8794 23.9753C34.8794 21.0755 33.7274 18.2944 31.6769 16.2438C29.6264 14.1933 26.8453 13.0414 23.9454 13.0414ZM14.8859 23.9753C14.8859 22.7856 15.1202 21.6075 15.5755 20.5084C16.0308 19.4092 16.6981 18.4105 17.5394 17.5692C18.3806 16.728 19.3793 16.0607 20.4785 15.6054C21.5776 15.1501 22.7557 14.9158 23.9454 14.9158C25.1352 14.9158 26.3132 15.1501 27.4124 15.6054C28.5115 16.0607 29.5103 16.728 30.3515 17.5692C31.1928 18.4105 31.8601 19.4092 32.3154 20.5084C32.7707 21.6075 33.005 22.7856 33.005 23.9753C33.005 26.3781 32.0505 28.6824 30.3515 30.3814C28.6525 32.0804 26.3482 33.0349 23.9454 33.0349C21.5427 33.0349 19.2384 32.0804 17.5394 30.3814C15.8404 28.6824 14.8859 26.3781 14.8859 23.9753Z" fill="white"/>
</svg>
