<svg width="48" height="48" viewBox="0 0 48 48" fill="none" xmlns="http://www.w3.org/2000/svg">
<rect width="47.8906" height="47.9506" rx="15" fill="#1FB9DB"/>
<path d="M11.1397 23.9753C11.1397 20.579 12.4888 17.3219 14.8904 14.9204C17.2919 12.5188 20.549 11.1697 23.9453 11.1697C27.3416 11.1697 30.5987 12.5188 33.0003 14.9204C35.4018 17.3219 36.751 20.579 36.751 23.9753C36.751 27.3716 35.4018 30.6287 33.0003 33.0303C30.5987 35.4318 27.3416 36.781 23.9453 36.781C20.549 36.781 17.2919 35.4318 14.8904 33.0303C12.4888 30.6287 11.1397 27.3716 11.1397 23.9753ZM32.0385 17.7005L17.6577 32.0557C19.6282 33.5866 22.0896 34.3458 24.58 34.1907C27.0705 34.0355 29.4187 32.9768 31.1839 31.2131C32.9491 29.4495 34.0099 27.1022 34.1673 24.6119C34.3246 22.1216 33.5677 19.6595 32.0385 17.6877V17.7005ZM30.2329 15.8821C28.2623 14.3411 25.7959 13.5744 23.299 13.7265C20.802 13.8787 18.447 14.9392 16.6781 16.7081C14.9092 18.477 13.8487 20.832 13.6965 23.329C13.5444 25.8259 14.3111 28.2923 15.8521 30.2629L30.2329 15.8821Z" fill="white"/>
</svg>
