<svg width="48" height="48" viewBox="0 0 48 48" fill="none" xmlns="http://www.w3.org/2000/svg">
<rect width="47.8906" height="47.9506" rx="15" fill="#1FB9DB"/>
<path d="M32.4199 14.6003C32.4199 12.6121 30.8085 11.0007 28.8203 11.0007H19.0703C17.0821 11.0007 15.4707 12.6121 15.4707 14.6003V33.3503C15.4707 35.3385 17.0821 36.9499 19.0703 36.9499H28.8203C30.8085 36.9499 32.4199 35.3385 32.4199 33.3503V14.6003ZM34.2207 33.3503C34.2207 36.3326 31.8027 38.7507 28.8203 38.7507H19.0703C16.088 38.7507 13.6699 36.3326 13.6699 33.3503V14.6003C13.6699 11.618 16.088 9.19992 19.0703 9.19992H28.8203C31.8027 9.19992 34.2207 11.618 34.2207 14.6003V33.3503Z" fill="white"/>
<path d="M24.1436 31.6999C24.6405 31.7001 25.043 32.1033 25.043 32.6003C25.043 33.0973 24.6405 33.5006 24.1436 33.5007L23.8291 33.5007C23.332 33.5007 22.9287 33.0974 22.9287 32.6003C22.9287 32.1033 23.332 31.6999 23.8291 31.6999L24.1436 31.6999Z" fill="white"/>
</svg>
