<svg width="48" height="48" viewBox="0 0 48 48" fill="none" xmlns="http://www.w3.org/2000/svg">
<rect width="47.8906" height="47.9506" rx="15" fill="#1FB9DB"/>
<path d="M23.9448 13.696C22.5744 14.5175 21.152 15.249 19.6851 15.8825C18.2304 16.5293 16.7341 17.0773 15.2065 17.5251V22.4245C15.2065 26.4556 17.0378 29.3178 19.062 31.2546C21.0085 33.117 23.1278 34.1158 23.9448 34.4597C24.7614 34.1162 26.8816 33.1195 28.8286 31.2575C30.8527 29.3217 32.6841 26.4594 32.6841 22.4245V17.5251C31.1565 17.0773 29.6602 16.5293 28.2056 15.8825C26.7384 15.2488 25.3155 14.5177 23.9448 13.696ZM34.6821 22.4245C34.6821 27.5378 32.0995 31.0566 29.519 33.2878C28.2294 34.4029 26.937 35.1994 25.9604 35.7175C25.4719 35.9766 25.061 36.1671 24.7681 36.2927C24.6218 36.3554 24.5042 36.4026 24.4204 36.4343C24.3787 36.45 24.3439 36.4616 24.3179 36.4704C24.3051 36.4747 24.2921 36.4788 24.2808 36.4821C24.2766 36.4833 24.2711 36.4846 24.2651 36.486L24.0288 36.57L23.9448 36.6003L23.8618 36.57L23.6069 36.4802L23.6011 36.4782C23.6045 36.4795 23.5802 36.4702 23.563 36.4636C23.54 36.4547 23.5072 36.4419 23.4663 36.4255C23.3845 36.3926 23.2682 36.3449 23.1226 36.2809C22.831 36.1529 22.4212 35.9611 21.9331 35.7009C20.9573 35.1807 19.6648 34.3845 18.3745 33.2712C15.7932 31.0439 13.2085 27.5343 13.2085 22.4245V15.9831L13.397 15.9352L13.9585 15.7927C15.6441 15.3454 17.2914 14.7643 18.8843 14.0544L18.8872 14.0534C20.4527 13.3743 21.964 12.5763 23.4077 11.6667L23.8091 11.4059L23.9419 11.32L24.0767 11.403L24.4888 11.6579L24.4907 11.6589C25.754 12.4548 27.0686 13.1657 28.4263 13.7858L29.0112 14.0456L29.0142 14.0466C30.6041 14.7585 32.2482 15.3426 33.9312 15.7927L34.4937 15.9352L34.6821 15.9831V22.4245Z" fill="white" stroke="white" stroke-width="0.5"/>
</svg>
