<svg width="26" height="26" viewBox="0 0 26 26" fill="none" xmlns="http://www.w3.org/2000/svg">
<path d="M12.963 9.07317C11.9317 9.07317 10.9426 9.48285 10.2134 10.2121C9.48415 10.9413 9.07447 11.9304 9.07447 12.9617C9.07447 13.993 9.48415 14.982 10.2134 15.7113C10.9426 16.4405 11.9317 16.8502 12.963 16.8502C13.9943 16.8502 14.9833 16.4405 15.7126 15.7113C16.4418 14.982 16.8515 13.993 16.8515 12.9617C16.8515 11.9304 16.4418 10.9413 15.7126 10.2121C14.9833 9.48285 13.9943 9.07317 12.963 9.07317ZM12.963 6.48083C14.6818 6.48083 16.3302 7.16364 17.5456 8.37903C18.761 9.59442 19.4438 11.2428 19.4438 12.9617C19.4438 14.6805 18.761 16.3289 17.5456 17.5443C16.3302 18.7597 14.6818 19.4425 12.963 19.4425C11.2441 19.4425 9.59572 18.7597 8.38032 17.5443C7.16493 16.3289 6.48213 14.6805 6.48213 12.9617C6.48213 11.2428 7.16493 9.59442 8.38032 8.37903C9.59572 7.16364 11.2441 6.48083 12.963 6.48083ZM21.3881 6.15679C21.3881 6.5865 21.2174 6.99861 20.9135 7.30245C20.6097 7.6063 20.1975 7.777 19.7678 7.777C19.3381 7.777 18.926 7.6063 18.6222 7.30245C18.3183 6.99861 18.1476 6.5865 18.1476 6.15679C18.1476 5.72709 18.3183 5.31498 18.6222 5.01113C18.926 4.70728 19.3381 4.53658 19.7678 4.53658C20.1975 4.53658 20.6097 4.70728 20.9135 5.01113C21.2174 5.31498 21.3881 5.72709 21.3881 6.15679ZM12.963 2.59233C9.75625 2.59233 9.2326 2.60141 7.74071 2.66751C6.72451 2.71547 6.04273 2.85157 5.4102 3.09784C4.88115 3.29274 4.40272 3.60417 4.01034 4.00904C3.60499 4.40129 3.29312 4.87973 3.09784 5.4089C2.85157 6.04403 2.71547 6.72451 2.66881 7.73941C2.60141 9.17038 2.59233 9.6707 2.59233 12.9617C2.59233 16.1697 2.60141 16.692 2.66751 18.1839C2.71547 19.1988 2.85157 19.8819 3.09654 20.5131C3.31689 21.077 3.57612 21.4827 4.00645 21.913C4.44326 22.3485 4.84896 22.609 5.40631 22.8242C6.04662 23.0718 6.7284 23.2092 7.73941 23.2558C9.17038 23.3232 9.6707 23.331 12.9617 23.331C16.1697 23.331 16.692 23.3219 18.1839 23.2558C19.1975 23.2079 19.8793 23.0718 20.5131 22.8268C21.0422 22.6319 21.5206 22.3205 21.913 21.9156C22.3498 21.4801 22.6103 21.0744 22.8255 20.5157C23.0718 19.878 23.2092 19.1962 23.2558 18.1826C23.3232 16.753 23.331 16.2513 23.331 12.9617C23.331 9.75495 23.3219 9.2313 23.2558 7.73941C23.2079 6.72581 23.0705 6.04143 22.8255 5.4089C22.6306 4.87985 22.3192 4.40142 21.9143 4.00904C21.5221 3.6037 21.0436 3.29183 20.5144 3.09654C19.8793 2.85027 19.1975 2.71417 18.1839 2.66751C16.7543 2.60011 16.2539 2.59233 12.9617 2.59233M12.9617 0C16.4834 0 16.9228 0.0129616 18.3058 0.07777C19.6849 0.142578 20.6259 0.359038 21.4516 0.680488C22.307 1.00971 23.0277 1.4556 23.7484 2.17497C24.4077 2.82271 24.9178 3.60655 25.2429 4.47178C25.563 5.29743 25.7808 6.23845 25.8456 7.61887C25.9065 9.00058 25.9233 9.43998 25.9233 12.9617C25.9233 16.4834 25.9104 16.9228 25.8456 18.3045C25.7808 19.6862 25.563 20.6246 25.2429 21.4516C24.9178 22.3168 24.4077 23.1006 23.7484 23.7484C23.1006 24.4077 22.3168 24.9178 21.4516 25.2429C20.6259 25.563 19.6849 25.7808 18.3058 25.8456C16.9228 25.9065 16.4834 25.9233 12.9617 25.9233C9.43998 25.9233 9.00058 25.9104 7.61757 25.8456C6.23845 25.7808 5.29873 25.563 4.47178 25.2429C3.60655 24.9178 2.82271 24.4077 2.17497 23.7484C1.51562 23.1006 1.00559 22.3168 0.680488 21.4516C0.359038 20.6259 0.142578 19.6849 0.07777 18.3045C0.0155539 16.9228 0 16.4834 0 12.9617C0 9.43998 0.0129616 9.00058 0.07777 7.61887C0.142578 6.23716 0.359038 5.29873 0.680488 4.47178C1.00559 3.60655 1.51562 2.82271 2.17497 2.17497C2.82271 1.51562 3.60655 1.00559 4.47178 0.680488C5.29743 0.359038 6.23716 0.142578 7.61757 0.07777C9.00188 0.0168501 9.44128 0 12.963 0" fill="#747B98"/>
</svg>
