<svg width="16" height="19" viewBox="0 0 16 19" fill="none" xmlns="http://www.w3.org/2000/svg">
<path d="M7.84003 1.81696C6.85127 2.41059 5.82462 2.93876 4.76581 3.39606L4.76483 3.39508C3.7134 3.86258 2.63194 4.25889 1.52753 4.5816V8.1275C1.52754 11.0363 2.84898 13.1018 4.30878 14.4986C5.72171 15.8504 7.26074 16.5709 7.841 16.814C8.42164 16.5708 9.96054 15.8516 11.3732 14.5005C12.833 13.1045 14.1545 11.039 14.1545 8.1275V4.58258C13.0498 4.25982 11.9679 3.86366 10.9162 3.39606L10.5099 3.21637C9.59375 2.80197 8.70229 2.3347 7.84003 1.81696ZM15.5314 8.1275C15.5314 11.7931 13.6806 14.3159 11.8293 15.9166C10.9038 16.7167 9.97633 17.288 9.27557 17.6597C8.92522 17.8456 8.63098 17.9818 8.42108 18.0718C8.31619 18.1168 8.23188 18.1508 8.17206 18.1734C8.14238 18.1846 8.11807 18.1936 8.09979 18.1998C8.09086 18.2028 8.08197 18.2054 8.0744 18.2076L7.89081 18.2711L7.841 18.2886L7.7912 18.2711L7.6076 18.2066L7.6037 18.2056C7.60187 18.2049 7.5878 18.1993 7.57635 18.1949C7.55998 18.1886 7.53711 18.1792 7.508 18.1675C7.44941 18.144 7.36545 18.1099 7.26093 18.064C7.052 17.9723 6.75844 17.8346 6.40839 17.648C5.70823 17.2748 4.78034 16.7035 3.85468 15.9048C2.00268 14.3069 0.149609 11.7906 0.149597 8.1275V3.51813L0.262878 3.48981L0.667175 3.38727C1.88092 3.06518 3.06706 2.64653 4.21405 2.13531H4.21503C5.34212 1.64639 6.43045 1.07149 7.46991 0.416565L7.75897 0.229065L7.83905 0.177307L7.9201 0.227112L8.216 0.410706L8.21698 0.411682C9.12647 0.984707 10.0735 1.49553 11.051 1.94196L11.4719 2.12946L11.4728 2.13043C12.6177 2.64309 13.8021 3.0632 15.0139 3.38727L15.4182 3.48981L15.5314 3.51813V8.1275Z" fill="#00B4D8" stroke="#00B4D8" stroke-width="0.3"/>
</svg>
