<svg width="23" height="26" viewBox="0 0 23 26" fill="none" xmlns="http://www.w3.org/2000/svg">
<path d="M17.8711 4.05116C16.8893 2.92995 16.3482 1.49031 16.3483 0H11.9093V17.8136C11.8757 18.7778 11.469 19.6913 10.7748 20.3614C10.0806 21.0314 9.15332 21.4056 8.18851 21.4051C6.14857 21.4051 4.4534 19.7386 4.4534 17.67C4.4534 15.199 6.83813 13.3458 9.29468 14.1072V9.56763C4.33848 8.90681 0 12.7568 0 17.67C0 22.4538 3.96497 25.8585 8.17415 25.8585C12.685 25.8585 16.3483 22.1952 16.3483 17.67V8.63386C18.1483 9.92656 20.3095 10.6201 22.5256 10.6163V6.1773C22.5256 6.1773 19.8248 6.30659 17.8711 4.05116Z" fill="#747B98"/>
</svg>
