<svg width="25" height="24" viewBox="0 0 25 24" fill="none" xmlns="http://www.w3.org/2000/svg">
<path d="M18.3737 9.72723C18.7974 9.72723 19.1819 9.97486 19.3574 10.3605L24.7614 22.2494C25.0083 22.7927 24.7684 23.4335 24.2252 23.6806C23.6819 23.9275 23.0411 23.6876 22.794 23.1444L21.6076 20.5353H15.1397L13.9533 23.1444C13.7062 23.6876 13.0654 23.9275 12.5221 23.6806C11.9789 23.4335 11.739 22.7927 11.9859 22.2494L17.39 10.3605L17.4649 10.2233C17.6618 9.91717 18.0026 9.72723 18.3737 9.72723ZM16.1223 18.3737H20.625L18.3737 13.4193L16.1223 18.3737ZM7.56562 1.0808C7.56562 0.483892 8.04952 0 8.64643 0C9.24334 0 9.72723 0.483892 9.72723 1.0808V3.24241H16.2121C16.809 3.24241 17.2929 3.7263 17.2929 4.32321C17.2929 4.92013 16.809 5.40402 16.2121 5.40402H13.7971C12.98 8.25082 11.7118 10.6742 9.99215 12.6593C10.7152 13.2298 11.5075 13.7321 12.3722 14.1644C12.9061 14.4314 13.1226 15.0808 12.8556 15.6147C12.5887 16.1486 11.9393 16.365 11.4054 16.0981C10.3322 15.5614 9.35277 14.9274 8.46383 14.2024C7.08564 15.4218 5.48752 16.4254 3.66777 17.2053C3.11918 17.4402 2.48431 17.186 2.24921 16.6374C2.01426 16.0888 2.26849 15.454 2.81705 15.2189C4.35045 14.5617 5.70436 13.7261 6.88273 12.7121C5.92219 11.6614 5.10582 10.4671 4.4372 9.12983C4.17026 8.59594 4.38672 7.94656 4.92061 7.67962C5.4545 7.41267 6.10388 7.62913 6.37083 8.16302C6.93388 9.28913 7.61446 10.2933 8.41211 11.1796C9.7746 9.58866 10.8175 7.66817 11.5395 5.40402H1.0808C0.483892 5.40402 0 4.92013 0 4.32321C0 3.7263 0.483892 3.24241 1.0808 3.24241H7.56562V1.0808Z" fill="#7B899F"/>
</svg>
